<?xml version="1.0" encoding="utf-8"?>
<svg version="1.1" xmlns="http://www.w3.org/2000/svg" xmlns:xlink="http://www.w3.org/1999/xlink" x="0px" y="0px"
	 viewBox="0 0 540 471" style="enable-background:new 0 0 540 471;" xml:space="preserve">
<path d="M403,11.2H142.6L12.5,236.7l130.2,225.5H403l130.2-225.5L403,11.2z M276,400.2c-37.3,0-72.9-9.9-104.8-29.8l26-45.4
	c24.1,16.4,49.3,25.5,80.1,25.5c34.6,0,56.5-15.9,56.5-40.5c0-23.2-12.8-35.5-72-49.2c-67.9-16.4-106.1-36.4-106.1-95.7
	c0-55.6,45.6-92.9,108.9-92.9c38.4,0,70.3,9.7,98.5,27.7l-26.4,45.4c-24.2-15.4-48.5-23.5-73-23.5c-32.8,0-51.9,16.9-51.9,38.3
	c0,25.1,14.6,36,75.6,50.6c67.4,16.4,102.5,40.5,102.5,93.8C389.9,364.7,343,400.2,276,400.2z"/>
</svg>
